inDegrees=no
num_controls=7
num_derivatives=13
num_iterations=160
num_multipliers=7
num_parameters=0
num_slacks=7
num_states=26
objective=4.992615
objective_accelerations=0.624868
objective_balance=0.112063
objective_effort=0.429667
objective_height=3.768726
objective_ligament=0.057291
solver_duration=3083.902090
status=Solve_Succeeded
success=true
DataType=double
version=3
OpenSimVersion=4.4-2022-07-23-0e9fedc
endheader
time	/jointset/ground_pelvis/pelvis_tilt/value	/jointset/ground_pelvis/pelvis_tx/value	/jointset/ground_pelvis/pelvis_ty/value	/jointset/hip_l/hip_flexion_l/value	/jointset/hip_l/hip_adduction_l/value	/jointset/hip_l/hip_rotation_l/value	/jointset/back/lumbar_extension/value	/jointset/patellofemoral_l/patellar_flexion_l/value	/jointset/knee_l/knee_flexion_l/value	/jointset/knee_l/knee_adduction_l/value	/jointset/knee_l/knee_rotation_l/value	/jointset/ankle_l/ankle_angle_l/value	/jointset/subtalar_l/subtalar_angle_l/value	/jointset/ground_pelvis/pelvis_tilt/speed	/jointset/ground_pelvis/pelvis_tx/speed	/jointset/ground_pelvis/pelvis_ty/speed	/jointset/hip_l/hip_flexion_l/speed	/jointset/hip_l/hip_adduction_l/speed	/jointset/hip_l/hip_rotation_l/speed	/jointset/back/lumbar_extension/speed	/jointset/patellofemoral_l/patellar_flexion_l/speed	/jointset/knee_l/knee_flexion_l/speed	/jointset/knee_l/knee_adduction_l/speed	/jointset/knee_l/knee_rotation_l/speed	/jointset/ankle_l/ankle_angle_l/speed	/jointset/subtalar_l/subtalar_angle_l/speed	/forceset/tau_hip_flexion_l	/forceset/tau_hip_adduction_l	/forceset/tau_hip_rotation_l	/forceset/tau_knee_flexion_l	/forceset/tau_ankle_angle_l	/forceset/tau_subtalar_angle_l	/forceset/tau_lumbar_extension	lambda_cid13_p0	lambda_cid13_p1	lambda_cid13_p2	lambda_cid13_p3	lambda_cid13_p4	lambda_cid13_p5	lambda_cid14_p0	/jointset/ground_pelvis/pelvis_tilt/accel	/jointset/ground_pelvis/pelvis_tx/accel	/jointset/ground_pelvis/pelvis_ty/accel	/jointset/hip_l/hip_flexion_l/accel	/jointset/hip_l/hip_adduction_l/accel	/jointset/hip_l/hip_rotation_l/accel	/jointset/back/lumbar_extension/accel	/jointset/patellofemoral_l/patellar_flexion_l/accel	/jointset/knee_l/knee_flexion_l/accel	/jointset/knee_l/knee_adduction_l/accel	/jointset/knee_l/knee_rotation_l/accel	/jointset/ankle_l/ankle_angle_l/accel	/jointset/subtalar_l/subtalar_angle_l/accel	gamma_cid13_p0	gamma_cid13_p1	gamma_cid13_p2	gamma_cid13_p3	gamma_cid13_p4	gamma_cid13_p5	gamma_cid14_p0
1.5	-0.3809474999678022	-0.02542181640966602	0.7465246858150124	1.262341431355031	-0.3033733627699495	0.02824269088480016	-0.344610206882046	0.893674780554307	0.893674780554307	-0.167048218434043	0.1742154965720382	0.1985242347564712	-0.0110245398926753	0.5312345346253283	0.1388301796752992	0.5784270642281846	-2.330022444167634	-0.0405359898890898	-0.80298577881133	0.5651346183529992	-2.275946758349375	-2.275946758349375	0.01987006336452175	0.0004944789643280521	-0.6199916024719891	-0.1537224077233625	-0.2201729306275942	0.02528474241747719	-0.02355039448485029	-0.2381685325917945	0.05737352279899968	0.04007389055738123	0.2083399258698125	-19.19998168432675	-16.71316414998348	5.312870903568217	0.2352974023939037	-605.0233719258212	-55.3232401551663	-15.8482082334968	0.6203167378371054	0.5760857996401799	-0.4508364298445205	-1.526706674285395	0.7634736383486658	-0.4620611236480572	1.759869263115289	-1.580793312746636	-1.580793312746637	-0.06481826387445577	0.01082491592966689	-0.7602658586422217	0.8522325187951117	4.342792504172378e-07	6.513376584210432e-07	-2.60926569428484e-06	-2.636758839028867e-07	5.002806430147481e-07	2.351583323573521e-07	4.372568577765975e-07
1.51	-0.3756043589181522	-0.02400479753409931	0.7522852276557332	1.23896715391295	-0.303741528606686	0.02019263716244564	-0.3388721436642796	0.8708388230251637	0.8708388230251651	-0.1668568008909863	0.1742211244328944	0.1922868596483599	-0.0125205567317667	0.5373188731859638	0.1445588229123738	0.5735587517308601	-2.344512117831396	-0.0330667379449794	-0.806918342033884	0.5824032426214971	-2.290927187695062	-2.290927187695064	0.01838474102430029	0.0006179678118196689	-0.6273756121275149	-0.1454566194028383	-0.2129967178092093	0.02492529777502201	-0.02365863574652844	-0.2355621222624812	0.06007538440071161	0.04002841957085079	0.2025197632209379	-18.07256684683874	-17.00950276124647	5.495680282766405	-0.1259208735535893	-599.9707591746572	-55.58424476375164	-17.28669642445684	0.5913180956806222	0.5689853239280519	-0.5231002607927017	-1.361899289811527	0.7435602381480106	-0.3424233196182883	1.699141621897811	-1.409131927536383	-1.409131927536755	-0.1946385997333624	0.01170389502698393	-0.711295090270847	0.8175894875567926	4.742806021716905e-07	8.221767213119007e-07	-2.751540603300234e-06	-2.625135768681092e-07	5.371433542832933e-07	3.666222193728727e-07	4.725612967016579e-07
1.52	-0.3702026093467953	-0.02253094587852446	0.7579934320512572	1.215457619418754	-0.3040340200708399	0.01210654392825375	-0.332963637681192	0.8478625683661524	0.847862568366155	-0.1666810864474593	0.1742277057873991	0.1859788791294407	-0.01393314818787772	0.5429562389667534	0.1501967356769276	0.5679595751888837	-2.357073854590754	-0.02540111537257209	-0.8101936811788069	0.5992231714172258	-2.304006184323014	-2.304006184323018	0.01672944345858479	0.0006851776940309539	-0.6341126846335644	-0.1370373311272854	-0.2058205049908243	0.02456585313256684	-0.02376687700820665	-0.232955711933168	0.06277724600242351	0.03998294858432036	0.1966996005720633	-16.94942133656478	-17.30726625072034	5.681200896017966	-0.5030110853195825	-595.0054753193233	-55.93519966234996	-18.72766002801844	0.5309221818679264	0.5579397051361262	-0.5970092387749543	-1.141119293404476	0.8027477640080459	-0.3306163081218317	1.670130168561441	-1.200506769199487	-1.200506769199486	-0.09881330897318089	-0.0004308771267321578	-0.6308784287469831	0.8829325098008532	5.156009392564572e-07	9.747946065348743e-07	-2.898731273690684e-06	-2.652798705423155e-07	5.7754282268847e-07	4.951492870665536e-07	5.06914510640638e-07
1.53	-0.3647466978263362	-0.02100121982486729	0.7636420576543855	1.191832059091667	-0.3042491188676443	0.003990877156326081	-0.3268894099205193	0.8247650857611871	0.8247650857611887	-0.166522959300369	0.1742348211268673	0.1796067812437089	-0.01526106318094944	0.5481446748429002	0.155727382323349	0.5616482584107025	-2.367700170908382	-0.01759292252616777	-0.8128453329224152	0.6155324772509437	-2.315152497956809	-2.315152497956809	0.01488602194100611	0.0007341446396878405	-0.6401881165492486	-0.1285261710068312	-0.1985307410302909	0.02395965749596532	-0.02383232708370224	-0.2305075546300036	0.06563568563711138	0.03979986887913535	0.1907601874186064	-15.78584459382976	-17.54597722843005	5.850030134024215	-0.8644136029916972	-590.1177106678864	-56.23467237564064	-20.16558208314712	0.5006515538092335	0.5474080475439951	-0.6656568832666901	-0.9726106412548348	0.7740752195767584	-0.2177864325367224	1.597845270823698	-1.021129474901731	-1.021129474900973	-0.2285325628537153	0.007619141511911868	-0.5780486445663788	0.8383114006400183	5.583226982546822e-07	1.108052490485721e-06	-3.05114494054213e-06	-2.722203024698171e-07	6.217000955513174e-07	6.205559842307799e-07	5.402570480319077e-07
1.54	-0.3592413324944516	-0.01941683112411614	0.7692240772925457	1.16811039103334	-0.3043852917010607	-0.004148375498048912	-0.3206547862055001	0.8015662528569973	0.8015662528569978	-0.1663835515663951	0.1742424378680121	0.1731774944245027	-0.01650324584532216	0.5528470012518936	0.1611292650957253	0.5546383821954411	-2.376295400838524	-0.009615922694958062	-0.8149108576682756	0.631302362286531	-2.324276244167889	-2.324276244167883	0.0129855608352876	0.0007854580293422763	-0.6455504713284228	-0.1198908653874843	-0.1912409770697577	0.02335346185936377	-0.02389777715919789	-0.2280593973268391	0.06849412527179972	0.03961678917395032	0.1848207742651495	-14.62594667004107	-17.78693635740025	6.022524228227703	-1.246063122854647	-585.3135676774492	-56.63295430360398	-21.59674822785923	0.4337002884371799	0.5321869303271128	-0.7367211261910293	-0.7349020159070593	0.8365091609691238	-0.2133909085718977	1.562246008935329	-0.795993284656088	-0.7959932846560881	-0.1102212266011459	3.841167248152828e-05	-0.4882630014449952	0.907761609579389	6.029041330876434e-07	1.24658165229537e-06	-3.208343946984295e-06	-2.806753613176436e-07	6.71550371829692e-07	7.515011216556727e-07	5.745361110408376e-07
1.55	-0.3536913345377127	-0.01777911943093449	0.7747325932687811	1.144312846027034	-0.3044410662356478	-0.01230534020657122	-0.3142653895942847	0.7782863184536533	0.7782863184536535	-0.1662636464541624	0.174250590356248	0.1666981652836309	-0.01765868873029574	0.5570671758502993	0.1663859598406649	0.546954187712738	-2.3828583182507	-0.00151390442599338	-0.8163876402442867	0.6464726841109818	-2.331348957007605	-2.3313489570076	0.01100578349648052	0.000840046395129675	-0.6501820428128869	-0.1111767626334921	-0.1839054573079497	0.022546291445106	-0.02392027140208828	-0.2257929651171494	0.07150539312432824	0.03923702511172126	0.1788223573946164	-13.43348109493797	-17.9397691363214	6.171360991809852	-1.606986606682701	-580.6728877599752	-56.92331684065218	-23.01806809547197	0.403429613222775	0.5182843831269212	-0.8007105504245304	-0.5636107648703642	0.8011882676369156	-0.1000831336070356	1.478783892365212	-0.6087842671562056	-0.6087842671563823	-0.2402269224724905	0.008104009445244647	-0.4305876983459502	0.8565476028366298	6.496282379041044e-07	1.391184242942334e-06	-3.371056496867941e-06	-2.90875533791062e-07	7.279599781303042e-07	8.88827505467855e-07	6.098942144353321e-07
1.56	-0.3481016841214536	-0.01608966606299353	0.7801609789119671	1.120460347014406	-0.3044149925659888	-0.02047412498115189	-0.3077274180401918	0.7549464821252069	0.7549464821252067	-0.1661632133023082	0.1742592757202241	0.1601765237326346	-0.01872632798882391	0.5607774931559248	0.1714776000475866	0.5386123155854527	-2.387286202102774	0.006753718154252548	-0.8172748708799502	0.6610173508620433	-2.336256629188396	-2.336256629188393	0.009091168759593529	0.0008920331774561824	-0.6540129533533039	-0.1023301400984	-0.1765699375461418	0.02173912103084822	-0.02394276564497869	-0.2235265329074597	0.07451666097685676	0.03885726104949221	0.1728239405240833	-12.24270289716163	-18.09622203464745	6.325250334079231	-1.998893228949131	-576.0927585013499	-57.32068850317327	-24.42729536153794	0.3317288298810915	0.4991760227236002	-0.868256655107392	-0.3078953038865124	0.8696300232253731	-0.09548052050234536	1.437114994257492	-0.3629851528712484	-0.3629851528712483	-0.09718870621711306	-0.0004819050192881864	-0.3281308126355577	0.934265565799392	6.942486271420696e-07	1.551575903140069e-06	-3.526593418402372e-06	-2.985429071397107e-07	7.845448578347318e-07	1.035181578112131e-06	6.449543515937365e-07
1.57	-0.3424774945042379	-0.01435020567341349	0.785502789218431	1.096574030997126	-0.3043058985825546	-0.02864831917530315	-0.3010474764604797	0.7315680118603184	0.7315680118603185	-0.1660826598066268	0.1742682530447088	0.1536203110706857	-0.0197054246975612	0.5639668323638845	0.1763783307597648	0.5296497161712045	-2.389617991775984	0.0150623031462943	-0.817411884132872	0.6748396841769545	-2.3390914194581	-2.339091419458097	0.006964299267322227	0.00086609801804946	-0.6571088313407751	-0.09350208010014177	-0.1690958015903855	0.02059731084901077	-0.0239393885798263	-0.2216799590163969	0.07780173339526963	0.03829930342329593	0.1666943046311447	-10.99195616495288	-18.17915552856129	6.459842558136003	-2.327101354506973	-571.824403154499	-57.6613193871904	-25.82291028389225	0.2985707818336048	0.4800384019696721	-0.9250912041715953	-0.1418752196091599	0.8114363402016974	0.05064608255536442	1.33510036459577	-0.1919652370879539	-0.1919652370881545	-0.2786182606465574	-0.00850664521960748	-0.2821751221925043	0.8552915680903711	7.362393719069153e-07	1.731703900276268e-06	-3.673160804500284e-06	-3.030442815823974e-07	8.413488292939286e-07	1.192820261796525e-06	6.796420309570283e-07
1.58	-0.3368242046318265	-0.01256283461541073	0.7907520076068347	1.072675186199	-0.3041137260285985	-0.03681919193993514	-0.2942332499747209	0.7081715458381194	0.7081715458381198	-0.1660250114438509	0.1742759995528357	0.1470367678627842	-0.02059659773606564	0.566597544195052	0.1810597337321315	0.5200939319734319	-2.389791958272028	0.02336943225866094	-0.8166105849760992	0.6878743320713794	-2.339855780650526	-2.339855780650525	0.004510142178471893	0.0006458699059169943	-0.6594790625438306	-0.08474540605183004	-0.1616216656346292	0.0194555006671733	-0.02393601151467407	-0.219833385125334	0.08108680581368261	0.03774134579709964	0.160564668738206	-9.740101872950717	-18.26694372071538	6.600535692689962	-2.700124268970587	-567.5815649888618	-58.11508565552699	-27.20437551795676	0.2200033545226783	0.4553104747612995	-0.9868936118124513	0.1236693315467931	0.8693388472903489	0.09218196143619858	1.279577910160256	0.05110066258423086	0.05110066258423081	-0.162646225532919	-0.03934049556403809	-0.1830014557524201	0.9199883758100995	7.503186207954127e-07	1.896959950177089e-06	-3.694470043440882e-06	-2.841270591424262e-07	8.63564181455962e-07	1.322923121095031e-06	6.961953068475494e-07
